<?xml version="1.0" standalone="no"?>
<!DOCTYPE svg PUBLIC "-//W3C//DTD SVG 20010904//EN"
 "http://www.w3.org/TR/2001/REC-SVG-20010904/DTD/svg10.dtd">
<svg version="1.0" xmlns="http://www.w3.org/2000/svg"
 width="336pt" height="336pt" viewBox="0 0 336 336"
 preserveAspectRatio="xMidYMid meet">
<metadata>
Created by potrace 1.8, written by Peter Selinger 2001-2007
</metadata>
<g transform="translate(0,336) scale(0.080000,-0.080000)"
fill="#69D55D" stroke="none">
<path d="M350 2795 l0 -1055 350 0 350 0 0 -350 0 -350 355 0 355 0 0 1050 0
1050 345 0 345 0 0 -1050 0 -1050 355 0 355 0 0 350 0 350 350 0 350 0 0 1055
0 1055 -355 0 -355 0 0 -350 0 -350 -345 0 -345 0 0 350 0 350 -355 0 -355 0
0 -350 0 -350 -345 0 -345 0 0 350 0 350 -355 0 -355 0 0 -1055z"/>
</g>
</svg>
